<svg version="1.1" id="Layer_1" xmlns="http://www.w3.org/2000/svg" xmlns:xlink="http://www.w3.org/1999/xlink" x="0px" y="0px"
	 width="100%" viewBox="0 0 567 567" enable-background="new 0 0 567 567" xml:space="preserve">
<path fill="#FFFFFF" opacity="1.000000" stroke="none" 
	d="
M1.000000,225.000000 
	C1.000000,150.016403 1.000000,75.532806 1.000000,1.024605 
	C189.941971,1.024605 378.883942,1.024605 567.912964,1.024605 
	C567.912964,189.900330 567.912964,378.800720 567.912964,567.850586 
	C379.000092,567.850586 190.000061,567.850586 1.000000,567.850586 
	C1.000000,453.782562 1.000000,339.641266 1.000000,225.000000 
M508.602722,429.716583 
	C509.768311,427.824097 510.933899,425.931580 512.654785,423.657104 
	C513.802063,421.450836 514.949341,419.244568 516.668030,416.637695 
	C517.644531,413.116180 521.824585,410.327759 519.024658,405.258850 
	C518.385681,403.826874 517.746765,402.394897 517.020325,400.227020 
	C516.380188,398.470367 515.739990,396.713715 514.985168,394.232544 
	C513.696472,391.478455 512.407776,388.724335 511.026733,385.203949 
	C508.256165,378.352661 505.485596,371.501343 502.645721,363.889893 
	C492.339508,341.873779 482.033295,319.857666 471.066162,296.429688 
	C469.104736,298.997589 467.866119,300.040161 467.371216,301.361359 
	C464.151398,309.956604 460.902649,318.550293 458.060883,327.273987 
	C456.600555,331.756805 456.227112,336.585236 454.894287,341.119843 
	C452.148865,350.460327 449.089050,359.708435 445.992706,369.742828 
	C444.288147,376.485626 442.583618,383.228455 440.278351,390.455566 
	C439.906525,393.970428 439.534668,397.485260 438.783966,401.685150 
	C438.575500,403.453796 438.367065,405.222443 438.009949,407.677155 
	C437.639252,408.767487 437.268585,409.857788 436.306458,411.377533 
	C435.256805,414.915558 434.207123,418.453583 433.038696,422.844421 
	C433.077301,424.562408 433.115906,426.280365 432.826721,428.605316 
	C432.267578,430.068970 431.708435,431.532623 431.038208,433.742615 
	C431.073334,434.494415 431.108490,435.246246 431.032379,436.760925 
	C430.403290,439.172516 429.774170,441.584076 429.035309,444.848419 
	C429.072235,446.564636 429.109131,448.280884 429.042358,450.846069 
	C428.994904,452.555786 428.947449,454.265503 428.374084,456.348053 
	C427.961761,457.565216 427.549408,458.782410 427.040192,460.870422 
	C427.075012,462.913849 427.109833,464.957306 427.045197,467.862000 
	C426.664154,470.899994 426.283142,473.937958 425.305908,477.508789 
	C424.709381,481.635437 424.112823,485.762054 423.201660,490.536652 
	C423.201660,497.248230 423.201660,503.959808 423.201660,511.900482 
	C434.804871,506.705902 443.535278,497.818970 453.737244,489.981201 
	C458.207092,486.437408 462.726624,482.953217 467.106659,479.301697 
	C468.030029,478.531921 468.441895,477.148651 469.680481,475.737732 
	C472.804810,472.518372 475.929169,469.299011 479.639679,465.767792 
	C482.110718,463.206909 484.581726,460.645996 487.639496,457.770294 
	C488.791809,456.192291 489.944092,454.614288 491.687073,452.723389 
	C492.822052,450.829926 493.957031,448.936493 495.668823,446.745056 
	C497.398529,444.828583 499.128235,442.912109 501.188599,440.394440 
	C502.828125,437.940613 504.467651,435.486755 506.613159,432.713776 
	C507.091980,431.839020 507.570801,430.964294 508.602722,429.716583 
M110.298012,470.674347 
	C110.832321,472.125092 111.366631,473.575867 111.971184,475.865265 
	C112.361572,479.242889 112.751961,482.620483 113.082085,486.709229 
	C114.684616,491.607849 118.440056,494.240326 123.332741,496.631714 
	C126.272285,498.973022 129.095825,501.484070 132.190369,503.598572 
	C134.415833,505.119293 137.002930,506.110718 139.782913,507.941895 
	C145.516174,511.149628 151.168732,514.513428 157.001373,517.528931 
	C166.037918,522.200867 175.042679,526.987488 184.348175,531.070923 
	C193.652191,535.153687 203.226135,538.674500 212.843842,541.968445 
	C218.217987,543.808960 223.894836,544.818237 229.484390,545.962097 
	C234.774857,547.044800 240.148941,547.715637 245.447510,548.763550 
	C248.024643,549.273071 250.486801,550.763977 253.046722,550.891418 
	C264.195435,551.446045 275.374573,551.423340 286.517181,552.057739 
	C303.851013,553.044495 320.828033,550.494019 337.615021,546.860046 
	C348.849609,544.428101 359.861237,540.887329 370.858093,537.473694 
	C375.461182,536.044861 375.704742,533.869873 372.688873,530.153564 
	C371.351715,528.505859 369.673096,526.806213 369.171509,524.865845 
	C366.869843,515.962097 364.929474,506.964996 362.964752,497.122955 
	C362.595245,494.082550 362.225739,491.042175 361.954254,487.224884 
	C361.255432,484.483521 360.556610,481.742157 359.962738,478.116302 
	C359.926117,475.744049 359.889496,473.371796 359.958466,470.147308 
	C359.669098,467.748932 359.379700,465.350525 359.024567,462.171051 
	C358.635223,460.447205 358.245880,458.723358 357.960236,456.224335 
	C357.594116,454.482422 357.227997,452.740479 356.703217,450.322754 
	C356.420288,449.213928 356.137329,448.105103 355.954529,446.246002 
	C355.584991,444.829681 355.215454,443.413391 354.898712,441.240326 
	C354.298279,439.143677 353.697845,437.047028 353.024231,434.212067 
	C352.964813,433.472931 352.905426,432.733765 352.945038,431.240692 
	C351.999725,428.818756 351.054443,426.396851 349.961273,423.165924 
	C349.589691,420.109924 349.218109,417.053894 348.959229,413.198456 
	C348.676788,411.452881 348.394318,409.707306 348.027863,407.196472 
	C347.718872,405.783356 347.409851,404.370270 347.027283,402.089630 
	C346.965607,400.058746 346.903931,398.027832 346.908478,395.218445 
	C345.645203,390.137390 344.381897,385.056305 343.027222,379.081360 
	C342.938293,376.591034 343.179749,374.035217 342.701538,371.622009 
	C340.918610,362.625183 338.689758,353.713257 337.050018,344.692841 
	C336.110931,339.526733 336.320068,334.155151 335.428101,328.976685 
	C333.118317,315.566589 330.416718,302.224487 328.016144,288.829315 
	C327.142822,283.955963 323.543579,279.765198 320.145477,280.063568 
	C312.266937,280.755432 304.315552,280.927979 296.513611,282.105408 
	C286.147491,283.669769 275.883972,285.933319 265.600403,288.015015 
	C261.825836,288.779083 259.650024,291.198914 258.962433,295.099304 
	C257.396484,303.982147 255.442123,312.802704 254.098633,321.716858 
	C252.774750,330.500977 251.967880,339.364838 251.011383,348.202026 
	C250.214539,355.564117 249.588562,362.944916 248.769608,370.304352 
	C248.371399,373.882935 247.704987,377.431641 247.034042,381.924255 
	C247.076263,387.946899 247.118469,393.969513 247.039703,400.844604 
	C247.080139,402.562073 247.120575,404.279572 247.040619,406.824768 
	C247.079086,408.215271 247.117554,409.605743 247.039642,411.865356 
	C247.078018,413.909363 247.116394,415.953369 247.041199,418.870605 
	C246.745468,421.911011 246.449753,424.951447 246.035858,428.862213 
	C246.075058,430.906403 246.114258,432.950562 246.039413,435.742493 
	C246.075409,436.495911 246.111420,437.249298 246.039871,438.871765 
	C246.076736,440.912445 246.113602,442.953125 246.038101,445.823029 
	C246.074722,447.214020 246.111328,448.604980 245.998734,450.684723 
	C245.713806,451.789581 245.428894,452.894440 245.043564,454.774719 
	C244.741058,456.515961 244.438553,458.257172 244.038757,460.869019 
	C244.073074,462.910767 244.107391,464.952545 244.035202,467.762329 
	C243.738068,469.508240 243.440948,471.254120 243.043213,473.823975 
	C242.742493,476.549469 242.441772,479.274994 242.042786,482.834015 
	C241.743469,485.556519 241.444153,488.279022 241.044830,491.876404 
	C240.743912,495.582886 240.442993,499.289368 240.043304,503.826233 
	C241.353058,511.136780 233.724075,517.099304 226.478424,516.956299 
	C219.371277,516.816162 212.267700,516.016968 205.168442,516.088562 
	C198.017502,516.160767 192.488861,514.203064 189.909470,506.228668 
	C188.891678,501.819641 187.873871,497.410645 186.904907,492.236694 
	C186.220932,489.824768 185.536957,487.412872 184.955643,484.121613 
	C184.336380,480.736053 183.717133,477.350494 183.017761,473.200439 
	C182.630997,471.466553 182.244217,469.732666 181.957291,467.169067 
	C181.922699,465.778076 181.888123,464.387085 181.954300,462.125732 
	C181.921066,460.083527 181.887833,458.041321 181.959671,455.199066 
	C181.675400,453.453796 181.391113,451.708557 181.026520,449.222076 
	C180.966995,448.479126 180.907486,447.736206 180.944763,446.268463 
	C180.247849,444.511169 179.550934,442.753876 178.701233,440.318909 
	C178.415909,439.210754 178.130585,438.102570 177.952942,436.123688 
	C177.674088,433.407745 177.395218,430.691772 177.031616,427.107422 
	C176.634491,424.068542 176.237350,421.029663 175.886856,417.161133 
	C175.590775,415.071869 175.299210,412.981964 174.997726,410.893463 
	C174.280701,405.926605 173.559006,400.960449 172.950974,395.141815 
	C172.953720,394.309021 173.032898,393.468323 172.947769,392.644623 
	C171.645203,380.039856 170.348083,367.434448 168.989548,354.835663 
	C168.408554,349.447540 167.875275,344.043335 166.986404,338.702057 
	C165.833755,331.775757 164.272873,324.918457 163.022293,318.007141 
	C160.949570,306.552216 159.019501,295.071350 156.904449,283.624512 
	C156.740753,282.738495 155.595200,282.033905 154.906006,281.244995 
	C154.280228,282.095337 153.193268,282.898621 153.100998,283.803375 
	C152.298080,291.674683 151.544327,299.555969 151.042297,307.451233 
	C150.718613,312.541626 145.223862,320.649506 140.374817,321.700806 
	C135.254700,322.810883 129.953751,323.064148 124.800499,324.050568 
	C119.515854,325.062164 115.573074,322.048370 111.426041,319.917603 
	C108.357826,318.341064 105.130844,316.339508 103.086205,313.674469 
	C99.903412,309.525940 97.700836,304.631805 95.014992,300.093781 
	C92.332870,295.562073 89.749229,290.952759 86.741943,286.642944 
	C85.655869,285.086517 83.466026,284.300293 81.779869,283.162598 
	C81.197617,285.235565 80.576164,287.298981 80.065720,289.389496 
	C79.962013,289.814240 80.287773,290.338623 80.396858,290.821289 
	C82.266808,299.095337 84.262611,307.343597 85.970535,315.651031 
	C88.380043,327.370850 90.776993,339.100220 92.794411,350.891357 
	C94.198608,359.098358 94.719971,367.454803 96.069649,375.673187 
	C97.414299,383.860992 99.300293,391.959930 100.982521,401.016907 
	C101.623924,407.361755 102.265327,413.706573 102.972015,420.932495 
	C103.279938,423.969299 103.587860,427.006073 103.969604,430.840302 
	C104.698135,433.558197 105.426666,436.276093 106.043320,439.663910 
	C106.326721,440.452271 106.610123,441.240631 106.968033,442.896820 
	C107.026947,444.927277 107.085861,446.957733 107.215187,449.555634 
	C107.524956,450.036194 107.834717,450.516754 108.040863,451.809753 
	C108.410088,453.871857 108.779312,455.933929 109.044205,458.799835 
	C109.410713,460.865234 109.777229,462.930634 110.036736,465.825806 
	C110.070297,467.217010 110.103851,468.608215 110.298012,470.674347 
M341.301331,23.001307 
	C333.890533,21.642426 326.509277,20.082712 319.059875,18.986109 
	C312.722992,18.053276 306.316193,17.300877 299.923767,17.144226 
	C295.733917,17.041553 294.261353,20.148405 296.470398,23.858444 
	C301.262085,31.905926 306.407288,39.742901 311.199982,47.789803 
	C315.727142,55.390930 320.487701,62.917770 324.213074,70.911850 
	C327.369904,77.685890 329.528076,84.987511 331.549011,92.217567 
	C338.909241,118.549614 348.156433,144.340302 353.740845,171.191971 
	C355.662933,180.433960 359.101654,189.355072 361.725983,198.457825 
	C365.264984,210.733002 368.705719,223.036667 372.151123,235.338608 
	C374.224579,242.742004 375.421021,250.520630 378.489044,257.479218 
	C381.515442,264.343384 382.706299,271.166656 383.103577,278.479126 
	C383.440521,284.681793 384.612518,290.845306 385.532959,297.008484 
	C386.622833,304.306366 387.629120,311.627167 389.067291,318.859344 
	C390.215851,324.635101 389.378632,331.147430 395.057861,336.459869 
	C396.175507,333.734375 397.293243,331.603394 397.935608,329.337646 
	C400.479889,320.363037 402.610718,311.262909 405.412537,302.372467 
	C407.525665,295.667206 410.707642,289.302704 412.906372,282.619598 
	C415.615997,274.383453 417.489746,265.868011 420.300201,257.670624 
	C422.896179,250.098770 426.448914,242.859711 429.210144,235.338211 
	C431.318512,229.595078 435.069794,223.961594 432.117828,217.385620 
	C427.018951,206.027100 422.028503,194.614883 416.667694,183.380219 
	C409.297272,167.934097 401.975098,152.447128 393.986816,137.318466 
	C385.221375,120.717934 375.763977,104.481239 366.516235,88.137955 
	C363.945923,83.595482 361.508636,78.858551 358.213776,74.868599 
	C349.817963,64.701569 347.935730,41.248722 355.187531,32.277676 
	C357.748932,29.108990 356.251007,27.163601 352.992493,26.114149 
	C349.415924,24.962259 345.765808,24.038778 341.301331,23.001307 
M225.851746,24.931664 
	C222.578445,25.249981 219.140549,25.034203 216.061584,25.983089 
	C205.239532,29.318272 194.441208,32.786900 183.836334,36.747044 
	C178.311096,38.810310 173.209427,42.007870 166.819580,45.249531 
	C168.748489,46.598984 169.371582,47.263222 170.134125,47.532204 
	C176.216370,49.677719 178.689957,54.613529 179.619293,60.377209 
	C181.265625,70.587608 182.936203,80.819420 183.906723,91.107361 
	C185.270935,105.568832 185.465454,120.156166 187.238037,134.557022 
	C188.117004,141.697998 189.013443,149.251633 193.639648,155.552505 
	C194.774841,157.098633 194.827408,159.605042 194.953613,161.695572 
	C195.332581,167.973053 195.126007,174.306320 195.841003,180.538300 
	C196.924866,189.985229 198.628540,199.359940 199.998138,208.775635 
	C200.754761,213.977097 201.224594,219.223251 202.086639,224.405533 
	C202.865387,229.086914 203.892151,233.736786 205.066498,238.334930 
	C205.323257,239.340256 206.669281,240.067383 207.513657,240.922623 
	C208.306229,239.971176 209.640366,239.106232 209.808243,238.055023 
	C211.644226,226.558823 213.408035,215.048386 214.966705,203.511459 
	C216.222260,194.217957 217.014481,184.861542 218.289398,175.571060 
	C220.408386,160.129700 222.729874,144.715927 225.010956,129.297180 
	C225.586090,125.409554 226.547592,121.569611 226.953384,117.668427 
	C227.789032,109.634506 228.264862,101.563492 229.076019,93.526634 
	C230.992996,74.533592 233.023819,55.552048 234.997818,36.564735 
	C235.355392,33.125378 236.027710,29.665823 235.888702,26.242636 
	C235.749603,22.817179 233.921875,20.938494 230.211365,22.930527 
	C229.046768,23.555754 227.846222,24.114079 225.851746,24.931664 
M503.859985,198.436447 
	C502.279297,202.932190 500.362274,207.347794 499.263550,211.958389 
	C498.734467,214.178574 499.203461,217.010361 500.159485,219.144608 
	C503.875580,227.440445 507.944366,235.579208 511.925842,243.755020 
	C519.347046,258.994232 526.867310,274.185638 534.209778,289.462555 
	C537.982422,297.311951 541.419922,305.321899 545.120361,313.207001 
	C545.618347,314.268127 546.770508,315.022308 547.619751,315.918671 
	C548.461487,314.856567 549.746704,313.910187 550.059875,312.710175 
	C550.923950,309.398987 551.791321,305.996826 551.916321,302.603363 
	C552.192139,295.115509 550.851135,287.376862 552.302856,280.170227 
	C554.278564,270.361938 549.955627,261.640137 549.106140,252.410675 
	C548.619019,247.118301 547.172119,241.568909 546.987366,235.992065 
	C546.910767,233.680283 547.072754,231.270325 546.477417,229.081467 
	C543.762939,219.100418 541.311829,209.004807 537.824829,199.288177 
	C533.878418,188.291229 528.993286,177.626160 524.324890,166.900085 
	C523.791626,165.674713 521.952454,164.177826 520.856323,164.280151 
	C519.818726,164.376984 518.839050,166.336655 518.054016,167.612549 
	C516.789795,169.667191 515.762939,171.866608 514.532166,173.943481 
	C513.108521,176.345657 511.208038,178.531296 510.160767,181.076813 
	C507.919067,186.525421 506.093323,192.145157 503.859985,198.436447 
M73.101662,148.339645 
	C79.843597,159.449203 86.500504,170.611832 93.378952,181.636215 
	C95.459763,184.971237 97.905464,188.164841 100.639534,190.981003 
	C103.221436,193.640442 106.067680,192.725555 106.789459,189.164810 
	C107.734444,184.502930 108.114983,179.727676 109.032059,175.058899 
	C111.714401,161.403214 109.378311,147.184601 114.760399,133.699478 
	C117.611481,126.555946 117.778687,118.342720 119.174652,110.615501 
	C119.406273,109.333328 119.780800,108.076271 119.996231,106.791992 
	C121.563469,97.448875 123.199303,88.115219 124.564804,78.742348 
	C124.786659,77.219475 123.777657,75.517281 123.337585,73.897972 
	C121.930199,74.394005 120.293098,74.584518 119.155708,75.439674 
	C114.556503,78.897598 109.819595,82.255241 105.675934,86.217201 
	C99.095505,92.509071 92.901932,99.210251 86.640213,105.828636 
	C83.744171,108.889626 80.910187,112.037735 78.337502,115.369812 
	C74.129799,120.819527 69.064568,126.011024 66.569992,132.201569 
	C65.401131,135.102219 69.357811,140.090393 71.049339,144.108170 
	C71.561089,145.323685 72.266510,146.457672 73.101662,148.339645 
M294.831970,170.624954 
	C291.086090,157.447617 287.340240,144.270294 283.594360,131.092957 
	C282.908661,131.124130 282.222961,131.155304 281.537262,131.186493 
	C280.692444,133.385834 279.366241,135.525116 279.083038,137.794556 
	C277.557129,150.022812 276.573456,162.323151 274.860413,174.522461 
	C272.828918,188.989059 270.291809,203.385864 267.885620,217.798203 
	C266.409637,226.639038 267.932709,228.703979 276.278595,227.956970 
	C285.608673,227.121872 294.918304,226.038635 304.220978,224.930023 
	C306.848816,224.616867 309.350372,223.326263 308.490204,220.178421 
	C306.722046,213.707794 304.518066,207.355682 302.461853,200.964951 
	C302.059967,199.715912 301.364014,198.549057 301.060730,197.282730 
	C298.998993,188.675018 297.006104,180.050797 294.831970,170.624954 
M478.152100,109.661713 
	C480.723175,105.266960 479.809631,101.755035 475.984375,98.383011 
	C469.944641,93.058884 464.513336,87.017136 458.285645,81.940170 
	C449.235809,74.562485 439.843384,67.577255 430.274719,60.885559 
	C428.180145,59.420773 425.627014,55.110905 422.408508,58.361362 
	C419.202667,61.599072 423.369781,64.350349 424.666718,66.940285 
	C431.371643,80.329788 438.429138,93.543259 445.403534,106.797142 
	C450.326050,116.151680 455.232086,125.517044 460.347473,134.765854 
	C461.213837,136.332367 463.102356,137.333527 464.518616,138.595871 
	C465.799744,137.124054 467.543457,135.852631 468.282806,134.146088 
	C471.679749,126.305511 474.796082,118.343376 478.152100,109.661713 
M18.867027,318.761902 
	C19.273531,321.188232 19.499104,323.662476 20.125681,326.030579 
	C21.289864,330.430511 23.848612,334.790192 23.767870,339.128296 
	C23.538933,351.428925 28.933592,362.129578 32.351837,373.367340 
	C33.456966,377.000549 36.286461,380.109222 38.327164,383.457855 
	C38.917313,383.256042 39.507462,383.054260 40.097607,382.852478 
	C40.397369,381.356812 41.111820,379.807159 40.925362,378.374786 
	C40.101681,372.047058 39.151451,365.728790 38.002743,359.451813 
	C35.413162,345.301453 32.712311,331.171173 29.988737,317.045807 
	C28.720675,310.469238 27.147499,303.949158 25.981007,297.355988 
	C24.811558,290.746094 24.059002,284.062866 22.919102,277.447021 
	C22.711479,276.242004 21.520266,275.206482 20.783104,274.092712 
	C19.837349,275.012665 18.702179,275.810120 18.003832,276.890076 
	C17.411093,277.806732 17.082876,279.041840 17.047691,280.149078 
	C16.646046,292.787994 15.941771,305.444214 18.867027,318.761902 
z"/>
<path fill="#7D97E1" opacity="1.000000" stroke="none" 
	d="
M341.724548,23.008539 
	C345.765808,24.038778 349.415924,24.962259 352.992493,26.114149 
	C356.251007,27.163601 357.748932,29.108990 355.187531,32.277676 
	C347.935730,41.248722 349.817963,64.701569 358.213776,74.868599 
	C361.508636,78.858551 363.945923,83.595482 366.516235,88.137955 
	C375.763977,104.481239 385.221375,120.717934 393.986816,137.318466 
	C401.975098,152.447128 409.297272,167.934097 416.667694,183.380219 
	C422.028503,194.614883 427.018951,206.027100 432.117828,217.385620 
	C435.069794,223.961594 431.318512,229.595078 429.210144,235.338211 
	C426.448914,242.859711 422.896179,250.098770 420.300201,257.670624 
	C417.489746,265.868011 415.615997,274.383453 412.906372,282.619598 
	C410.707642,289.302704 407.525665,295.667206 405.412537,302.372467 
	C402.610718,311.262909 400.479889,320.363037 397.935608,329.337646 
	C397.293243,331.603394 396.175507,333.734375 395.057861,336.459869 
	C389.378632,331.147430 390.215851,324.635101 389.067291,318.859344 
	C387.629120,311.627167 386.622833,304.306366 385.532959,297.008484 
	C384.612518,290.845306 383.440521,284.681793 383.103577,278.479126 
	C382.706299,271.166656 381.515442,264.343384 378.489044,257.479218 
	C375.421021,250.520630 374.224579,242.742004 372.151123,235.338608 
	C368.705719,223.036667 365.264984,210.733002 361.725983,198.457825 
	C359.101654,189.355072 355.662933,180.433960 353.740845,171.191971 
	C348.156433,144.340302 338.909241,118.549614 331.549011,92.217567 
	C329.528076,84.987511 327.369904,77.685890 324.213074,70.911850 
	C320.487701,62.917770 315.727142,55.390930 311.199982,47.789803 
	C306.407288,39.742901 301.262085,31.905926 296.470398,23.858444 
	C294.261353,20.148405 295.733917,17.041553 299.923767,17.144226 
	C306.316193,17.300877 312.722992,18.053276 319.059875,18.986109 
	C326.509277,20.082712 333.890533,21.642426 341.724548,23.008539 
z"/>
<path fill="#F19AB2" opacity="1.000000" stroke="none" 
	d="
M189.860657,506.995789 
	C192.488861,514.203064 198.017502,516.160767 205.168442,516.088562 
	C212.267700,516.016968 219.371277,516.816162 226.478424,516.956299 
	C233.724075,517.099304 241.353058,511.136780 240.494125,503.351746 
	C242.061600,502.588623 243.166168,502.113678 244.296814,502.040192 
	C255.335236,501.322876 266.369537,500.384033 277.421204,500.059692 
	C305.896210,499.223999 334.379456,498.668701 362.859406,498.001373 
	C364.929474,506.964996 366.869843,515.962097 369.171509,524.865845 
	C369.673096,526.806213 371.351715,528.505859 372.688873,530.153564 
	C375.704742,533.869873 375.461182,536.044861 370.858093,537.473694 
	C359.861237,540.887329 348.849609,544.428101 337.615021,546.860046 
	C320.828033,550.494019 303.851013,553.044495 286.517181,552.057739 
	C275.374573,551.423340 264.195435,551.446045 253.046722,550.891418 
	C250.486801,550.763977 248.024643,549.273071 245.447510,548.763550 
	C240.148941,547.715637 234.774857,547.044800 229.484390,545.962097 
	C223.894836,544.818237 218.217987,543.808960 212.843842,541.968445 
	C203.226135,538.674500 193.652191,535.153687 184.348175,531.070923 
	C175.042679,526.987488 166.037918,522.200867 157.001373,517.528931 
	C151.168732,514.513428 145.516174,511.149628 140.126175,507.530823 
	C153.057220,506.755585 165.643387,506.291321 178.233765,506.087158 
	C182.103470,506.024414 185.984695,506.672974 189.860657,506.995789 
z"/>
<path fill="#7DA2E1" opacity="1.000000" stroke="none" 
	d="
M247.159988,380.993866 
	C247.704987,377.431641 248.371399,373.882935 248.769608,370.304352 
	C249.588562,362.944916 250.214539,355.564117 251.011383,348.202026 
	C251.967880,339.364838 252.774750,330.500977 254.098633,321.716858 
	C255.442123,312.802704 257.396484,303.982147 258.962433,295.099304 
	C259.650024,291.198914 261.825836,288.779083 265.600403,288.015015 
	C275.883972,285.933319 286.147491,283.669769 296.513611,282.105408 
	C304.315552,280.927979 312.266937,280.755432 320.145477,280.063568 
	C323.543579,279.765198 327.142822,283.955963 328.016144,288.829315 
	C330.416718,302.224487 333.118317,315.566589 335.428101,328.976685 
	C336.320068,334.155151 336.110931,339.526733 337.050018,344.692841 
	C338.689758,353.713257 340.918610,362.625183 342.701538,371.622009 
	C343.179749,374.035217 342.938293,376.591034 342.700104,379.504211 
	C340.802063,380.003326 339.214508,379.960419 337.663055,380.176483 
	C330.911224,381.116943 324.262665,383.863922 317.369812,380.140808 
	C315.754730,379.268372 313.118134,380.137299 310.979553,380.418335 
	C307.636749,380.857635 304.303528,381.403748 300.991791,382.038025 
	C293.250458,383.520691 285.472076,380.152588 277.555786,382.809570 
	C273.610260,384.133850 268.826843,383.001709 264.424103,382.904205 
	C262.655701,382.865051 260.584839,381.960846 259.191101,382.609497 
	C256.456726,383.882111 254.382156,383.954895 251.893066,382.093170 
	C250.705658,381.204956 248.761414,381.328583 247.159988,380.993866 
z"/>
<path fill="#7DE19B" opacity="1.000000" stroke="none" 
	d="
M226.256943,24.817347 
	C227.846222,24.114079 229.046768,23.555754 230.211365,22.930527 
	C233.921875,20.938494 235.749603,22.817179 235.888702,26.242636 
	C236.027710,29.665823 235.355392,33.125378 234.997818,36.564735 
	C233.023819,55.552048 230.992996,74.533592 229.076019,93.526634 
	C228.264862,101.563492 227.789032,109.634506 226.953384,117.668427 
	C226.547592,121.569611 225.586090,125.409554 225.010956,129.297180 
	C222.729874,144.715927 220.408386,160.129700 218.289398,175.571060 
	C217.014481,184.861542 216.222260,194.217957 214.966705,203.511459 
	C213.408035,215.048386 211.644226,226.558823 209.808243,238.055023 
	C209.640366,239.106232 208.306229,239.971176 207.513657,240.922623 
	C206.669281,240.067383 205.323257,239.340256 205.066498,238.334930 
	C203.892151,233.736786 202.865387,229.086914 202.086639,224.405533 
	C201.224594,219.223251 200.754761,213.977097 199.998138,208.775635 
	C198.628540,199.359940 196.924866,189.985229 195.841003,180.538300 
	C195.126007,174.306320 195.332581,167.973053 194.953613,161.695572 
	C194.827408,159.605042 194.774841,157.098633 193.639648,155.552505 
	C189.013443,149.251633 188.117004,141.697998 187.238037,134.557022 
	C185.465454,120.156166 185.270935,105.568832 183.906723,91.107361 
	C182.936203,80.819420 181.265625,70.587608 179.619293,60.377209 
	C178.689957,54.613529 176.216370,49.677719 170.134125,47.532204 
	C169.371582,47.263222 168.748489,46.598984 166.819580,45.249531 
	C173.209427,42.007870 178.311096,38.810310 183.836334,36.747044 
	C194.441208,32.786900 205.239532,29.318272 216.061584,25.983089 
	C219.140549,25.034203 222.578445,25.249981 226.256943,24.817347 
z"/>
<path fill="#7EA2E1" opacity="1.000000" stroke="none" 
	d="
M100.948936,400.097809 
	C99.300293,391.959930 97.414299,383.860992 96.069649,375.673187 
	C94.719971,367.454803 94.198608,359.098358 92.794411,350.891357 
	C90.776993,339.100220 88.380043,327.370850 85.970535,315.651031 
	C84.262611,307.343597 82.266808,299.095337 80.396858,290.821289 
	C80.287773,290.338623 79.962013,289.814240 80.065720,289.389496 
	C80.576164,287.298981 81.197617,285.235565 81.779861,283.162598 
	C83.466026,284.300293 85.655869,285.086517 86.741943,286.642944 
	C89.749229,290.952759 92.332870,295.562073 95.014992,300.093781 
	C97.700836,304.631805 99.903412,309.525940 103.086205,313.674469 
	C105.130844,316.339508 108.357826,318.341064 111.426041,319.917603 
	C115.573074,322.048370 119.515854,325.062164 124.800499,324.050568 
	C129.953751,323.064148 135.254700,322.810883 140.374817,321.700806 
	C145.223862,320.649506 150.718613,312.541626 151.042297,307.451233 
	C151.544327,299.555969 152.298080,291.674683 153.100998,283.803375 
	C153.193268,282.898621 154.280228,282.095337 154.906006,281.244995 
	C155.595200,282.033905 156.740753,282.738495 156.904449,283.624512 
	C159.019501,295.071350 160.949570,306.552216 163.022293,318.007141 
	C164.272873,324.918457 165.833755,331.775757 166.986404,338.702057 
	C167.875275,344.043335 168.408554,349.447540 168.989548,354.835663 
	C170.348083,367.434448 171.645203,380.039856 172.947769,392.644623 
	C173.032898,393.468323 172.953720,394.309021 172.439117,395.569946 
	C152.830399,396.332611 133.727463,396.487457 114.641075,397.131927 
	C110.048882,397.286957 105.511520,399.065765 100.948936,400.097809 
z"/>
<path fill="#7DB6E1" opacity="1.000000" stroke="none" 
	d="
M503.978638,198.065643 
	C506.093323,192.145157 507.919067,186.525421 510.160767,181.076813 
	C511.208038,178.531296 513.108521,176.345657 514.532166,173.943481 
	C515.762939,171.866608 516.789795,169.667191 518.054016,167.612549 
	C518.839050,166.336655 519.818726,164.376984 520.856323,164.280151 
	C521.952454,164.177826 523.791626,165.674713 524.324890,166.900085 
	C528.993286,177.626160 533.878418,188.291229 537.824829,199.288177 
	C541.311829,209.004807 543.762939,219.100418 546.477417,229.081467 
	C547.072754,231.270325 546.910767,233.680283 546.987366,235.992065 
	C547.172119,241.568909 548.619019,247.118301 549.106140,252.410675 
	C549.955627,261.640137 554.278564,270.361938 552.302856,280.170227 
	C550.851135,287.376862 552.192139,295.115509 551.916321,302.603363 
	C551.791321,305.996826 550.923950,309.398987 550.059875,312.710175 
	C549.746704,313.910187 548.461487,314.856567 547.619751,315.918640 
	C546.770508,315.022308 545.618347,314.268127 545.120361,313.207001 
	C541.419922,305.321899 537.982422,297.311951 534.209778,289.462555 
	C526.867310,274.185638 519.347046,258.994232 511.925842,243.755020 
	C507.944366,235.579208 503.875580,227.440445 500.159485,219.144608 
	C499.203461,217.010361 498.734467,214.178574 499.263550,211.958389 
	C500.362274,207.347794 502.279297,202.932190 503.978638,198.065643 
z"/>
<path fill="#FAE264" opacity="1.000000" stroke="none" 
	d="
M72.992447,147.984314 
	C72.266510,146.457672 71.561089,145.323685 71.049339,144.108170 
	C69.357811,140.090393 65.401131,135.102219 66.569992,132.201569 
	C69.064568,126.011024 74.129799,120.819527 78.337502,115.369812 
	C80.910187,112.037735 83.744171,108.889626 86.640213,105.828636 
	C92.901932,99.210251 99.095505,92.509071 105.675934,86.217201 
	C109.819595,82.255241 114.556503,78.897598 119.155708,75.439674 
	C120.293098,74.584518 121.930199,74.394005 123.337585,73.897972 
	C123.777657,75.517281 124.786659,77.219475 124.564804,78.742348 
	C123.199303,88.115219 121.563469,97.448875 119.996231,106.791992 
	C119.780800,108.076271 119.406273,109.333328 119.174652,110.615501 
	C117.778687,118.342720 117.611481,126.555946 114.760399,133.699478 
	C109.378311,147.184601 111.714401,161.403214 109.032059,175.058899 
	C108.114983,179.727676 107.734444,184.502930 106.789459,189.164810 
	C106.067680,192.725555 103.221436,193.640442 100.639534,190.981003 
	C97.905464,188.164841 95.459763,184.971237 93.378952,181.636215 
	C86.500504,170.611832 79.843597,159.449203 72.992447,147.984314 
z"/>
<path fill="#7DD3E2" opacity="1.000000" stroke="none" 
	d="
M294.911499,171.028442 
	C297.006104,180.050797 298.998993,188.675018 301.060730,197.282730 
	C301.364014,198.549057 302.059967,199.715912 302.461853,200.964951 
	C304.518066,207.355682 306.722046,213.707794 308.490204,220.178421 
	C309.350372,223.326263 306.848816,224.616867 304.220978,224.930023 
	C294.918304,226.038635 285.608673,227.121872 276.278595,227.956970 
	C267.932709,228.703979 266.409637,226.639038 267.885620,217.798203 
	C270.291809,203.385864 272.828918,188.989059 274.860413,174.522461 
	C276.573456,162.323151 277.557129,150.022812 279.083038,137.794556 
	C279.366241,135.525116 280.692444,133.385834 281.537262,131.186493 
	C282.222961,131.155304 282.908661,131.124130 283.594360,131.092957 
	C287.340240,144.270294 291.086090,157.447617 294.911499,171.028442 
z"/>
<path fill="#7DA2E1" opacity="1.000000" stroke="none" 
	d="
M446.158569,368.994537 
	C449.089050,359.708435 452.148865,350.460327 454.894287,341.119843 
	C456.227112,336.585236 456.600555,331.756805 458.060883,327.273987 
	C460.902649,318.550293 464.151398,309.956604 467.371216,301.361359 
	C467.866119,300.040161 469.104736,298.997589 471.066162,296.429688 
	C482.033295,319.857666 492.339508,341.873779 502.256714,364.447205 
	C494.810486,368.670868 487.353363,366.926636 480.048218,366.405121 
	C477.647095,366.233704 474.879456,365.360870 473.077423,363.854279 
	C469.390106,360.771515 466.976410,361.272003 465.064941,365.827423 
	C464.498322,367.177765 462.629761,368.757202 461.258820,368.855835 
	C456.248016,369.216278 451.195404,368.996002 446.158569,368.994537 
z"/>
<path fill="#9598E7" opacity="1.000000" stroke="none" 
	d="
M478.082611,110.043289 
	C474.796082,118.343376 471.679749,126.305511 468.282806,134.146088 
	C467.543457,135.852631 465.799744,137.124054 464.518616,138.595871 
	C463.102356,137.333527 461.213837,136.332367 460.347473,134.765854 
	C455.232086,125.517044 450.326050,116.151680 445.403534,106.797142 
	C438.429138,93.543259 431.371643,80.329788 424.666718,66.940285 
	C423.369781,64.350349 419.202667,61.599072 422.408508,58.361362 
	C425.627014,55.110905 428.180145,59.420773 430.274719,60.885559 
	C439.843384,67.577255 449.235809,74.562485 458.285645,81.940170 
	C464.513336,87.017136 469.944641,93.058884 475.984375,98.383011 
	C479.809631,101.755035 480.723175,105.266960 478.082611,110.043289 
z"/>
<path fill="#83A2DF" opacity="1.000000" stroke="none" 
	d="
M247.097015,381.459045 
	C248.761414,381.328583 250.705658,381.204956 251.893066,382.093170 
	C254.382156,383.954895 256.456726,383.882111 259.191101,382.609497 
	C260.584839,381.960846 262.655701,382.865051 264.424103,382.904205 
	C268.826843,383.001709 273.610260,384.133850 277.555786,382.809570 
	C285.472076,380.152588 293.250458,383.520691 300.991791,382.038025 
	C304.303528,381.403748 307.636749,380.857635 310.979553,380.418335 
	C313.118134,380.137299 315.754730,379.268372 317.369812,380.140808 
	C324.262665,383.863922 330.911224,381.116943 337.663055,380.176483 
	C339.214508,379.960419 340.802063,380.003326 342.745789,379.951141 
	C344.381897,385.056305 345.645203,390.137390 346.467102,395.620605 
	C340.802612,396.557343 335.586395,397.437225 330.354675,397.542084 
	C323.245270,397.684570 316.113831,396.897583 309.009949,397.110992 
	C295.594849,397.513947 282.193024,398.353027 268.785004,398.997223 
	C261.577576,399.343506 254.368835,399.661438 247.160690,399.992157 
	C247.118469,393.969513 247.076263,387.946899 247.097015,381.459045 
z"/>
<path fill="#8AA1DC" opacity="1.000000" stroke="none" 
	d="
M100.965729,400.557373 
	C105.511520,399.065765 110.048882,397.286957 114.641075,397.131927 
	C133.727463,396.487457 152.830399,396.332611 172.383240,395.996033 
	C173.559006,400.960449 174.280701,405.926605 174.997726,410.893463 
	C175.299210,412.981964 175.590775,415.071869 175.408081,417.579071 
	C163.245422,417.998199 151.559662,417.869293 139.878204,418.038239 
	C128.812332,418.198242 117.749863,418.640656 106.689117,419.046539 
	C105.417740,419.093231 104.167023,419.702820 102.906731,420.051422 
	C102.265327,413.706573 101.623924,407.361755 100.965729,400.557373 
z"/>
<path fill="#83A2DF" opacity="1.000000" stroke="none" 
	d="
M446.075623,369.368683 
	C451.195404,368.996002 456.248016,369.216278 461.258820,368.855835 
	C462.629761,368.757202 464.498322,367.177765 465.064941,365.827423 
	C466.976410,361.272003 469.390106,360.771515 473.077423,363.854279 
	C474.879456,365.360870 477.647095,366.233704 480.048218,366.405121 
	C487.353363,366.926636 494.810486,368.670868 502.291382,364.827271 
	C505.485596,371.501343 508.256165,378.352661 510.594360,385.596710 
	C504.345520,386.013977 498.509094,385.736237 492.716431,386.119781 
	C475.428101,387.264465 458.156921,388.668518 440.879089,389.971252 
	C442.583618,383.228455 444.288147,376.485626 446.075623,369.368683 
z"/>
<path fill="#EA9AB4" opacity="1.000000" stroke="none" 
	d="
M362.912079,497.562164 
	C334.379456,498.668701 305.896210,499.223999 277.421204,500.059692 
	C266.369537,500.384033 255.335236,501.322876 244.296814,502.040192 
	C243.166168,502.113678 242.061600,502.588623 240.543518,502.936584 
	C240.442993,499.289368 240.743912,495.582886 241.550446,491.438293 
	C256.087616,490.668549 270.119629,490.355347 284.150635,490.001190 
	C310.052795,489.347382 335.954407,488.669556 361.856232,488.001770 
	C362.225739,491.042175 362.595245,494.082550 362.912079,497.562164 
z"/>
<path fill="#E59BB7" opacity="1.000000" stroke="none" 
	d="
M361.905243,487.613312 
	C335.954407,488.669556 310.052795,489.347382 284.150635,490.001190 
	C270.119629,490.355347 256.087616,490.668549 241.600449,491.000854 
	C241.444153,488.279022 241.743469,485.556519 242.547882,482.416992 
	C255.310974,481.666656 267.569000,481.334320 279.826965,480.999664 
	C291.918762,480.669556 304.009888,480.312225 316.102417,480.012085 
	C330.686920,479.650085 345.272614,479.335754 359.857788,479.000793 
	C360.556610,481.742157 361.255432,484.483521 361.905243,487.613312 
z"/>
<path fill="#7D87E1" opacity="1.000000" stroke="none" 
	d="
M18.674500,318.367371 
	C15.941771,305.444214 16.646046,292.787994 17.047691,280.149078 
	C17.082876,279.041840 17.411093,277.806732 18.003832,276.890076 
	C18.702179,275.810120 19.837349,275.012665 20.783108,274.092712 
	C21.520266,275.206482 22.711479,276.242004 22.919102,277.447021 
	C24.059002,284.062866 24.811558,290.746094 25.981007,297.355988 
	C27.147499,303.949158 28.720675,310.469238 29.988737,317.045807 
	C32.712311,331.171173 35.413162,345.301453 38.002743,359.451813 
	C39.151451,365.728790 40.101681,372.047058 40.925362,378.374786 
	C41.111820,379.807159 40.397369,381.356812 40.097607,382.852478 
	C39.507462,383.054260 38.917313,383.256042 38.327164,383.457855 
	C36.286461,380.109222 33.456966,377.000549 32.351837,373.367340 
	C28.933592,362.129578 23.538933,351.428925 23.767870,339.128296 
	C23.848612,334.790192 21.289864,330.430511 20.125681,326.030579 
	C19.499104,323.662476 19.273531,321.188232 18.674500,318.367371 
z"/>
<path fill="#DC9BBA" opacity="1.000000" stroke="none" 
	d="
M359.910278,478.558533 
	C345.272614,479.335754 330.686920,479.650085 316.102417,480.012085 
	C304.009888,480.312225 291.918762,480.669556 279.826965,480.999664 
	C267.569000,481.334320 255.310974,481.666656 242.597015,482.000244 
	C242.441772,479.274994 242.742493,476.549469 243.549240,473.411987 
	C255.634491,472.667053 267.211761,472.212463 278.793335,472.026031 
	C304.483795,471.612579 330.176422,471.332977 355.868195,471.002197 
	C357.196228,470.985107 358.524628,470.999695 359.852875,470.999542 
	C359.889496,473.371796 359.926117,475.744049 359.910278,478.558533 
z"/>
<path fill="#95A0D7" opacity="1.000000" stroke="none" 
	d="
M246.154022,427.991852 
	C246.449753,424.951447 246.745468,421.911011 247.530594,418.434937 
	C249.996475,417.840179 251.970230,417.618652 253.949890,417.532379 
	C265.197144,417.042145 276.442291,416.418243 287.695374,416.178925 
	C294.218353,416.040161 300.764557,416.864380 307.283020,416.671173 
	C316.698700,416.392059 326.099823,415.600983 335.504822,414.992157 
	C339.954865,414.704071 344.399445,414.331940 348.846497,413.997894 
	C349.218109,417.053894 349.589691,420.109924 349.580200,423.578430 
	C341.153259,424.658173 333.118439,425.672607 325.059540,425.928955 
	C298.762421,426.765442 272.456543,427.325470 246.154022,427.991852 
z"/>
<path fill="#95A0D7" opacity="1.000000" stroke="none" 
	d="
M519.111023,405.961853 
	C521.824585,410.327759 517.644531,413.116180 515.914062,416.825073 
	C503.132690,417.686737 491.102325,418.312775 479.078613,419.047424 
	C463.768768,419.982849 448.464264,421.006165 433.157471,421.991608 
	C434.207123,418.453583 435.256805,414.915558 436.961487,411.319794 
	C447.143707,410.825134 456.682617,410.560577 466.195526,409.913940 
	C483.842041,408.714386 501.473358,407.291656 519.111023,405.961853 
z"/>
<path fill="#DC9BBA" opacity="1.000000" stroke="none" 
	d="
M183.097870,473.964935 
	C183.717133,477.350494 184.336380,480.736053 184.448700,484.560608 
	C160.341934,485.332458 136.742142,485.665283 113.142342,485.998108 
	C112.751961,482.620483 112.361572,479.242889 112.413857,475.437378 
	C136.270309,474.661316 159.684097,474.313110 183.097870,473.964935 
z"/>
<path fill="#9FA0D3" opacity="1.000000" stroke="none" 
	d="
M246.094940,428.427032 
	C272.456543,427.325470 298.762421,426.765442 325.059540,425.928955 
	C333.118439,425.672607 341.153259,424.658173 349.654114,423.982910 
	C351.054443,426.396851 351.999725,428.818756 352.458679,431.619385 
	C347.853546,432.332031 343.740326,432.829041 339.614960,432.969269 
	C327.340454,433.386353 315.062500,433.726807 302.783478,433.980103 
	C283.907867,434.369568 265.030243,434.661469 246.153473,434.994751 
	C246.114258,432.950562 246.075058,430.906403 246.094940,428.427032 
z"/>
<path fill="#EA9AB4" opacity="1.000000" stroke="none" 
	d="
M189.885071,506.612244 
	C185.984695,506.672974 182.103470,506.024414 178.233765,506.087158 
	C165.643387,506.291321 153.057220,506.755585 139.949066,507.229004 
	C137.002930,506.110718 134.415833,505.119293 132.190369,503.598572 
	C129.095825,501.484070 126.272285,498.973022 123.396591,496.057343 
	C134.091705,494.655304 144.710434,493.509430 155.357773,493.090210 
	C165.842117,492.677368 176.355453,493.001099 186.856079,493.001617 
	C187.873871,497.410645 188.891678,501.819641 189.885071,506.612244 
z"/>
<path fill="#D29CBE" opacity="1.000000" stroke="none" 
	d="
M359.905670,470.573425 
	C358.524628,470.999695 357.196228,470.985107 355.868195,471.002197 
	C330.176422,471.332977 304.483795,471.612579 278.793335,472.026031 
	C267.211761,472.212463 255.634491,472.667053 243.599548,473.000000 
	C243.440948,471.254120 243.738068,469.508240 244.488388,467.320068 
	C250.008057,466.841431 255.078430,466.919403 260.140289,466.747375 
	C275.777191,466.216125 291.407806,465.485657 307.046600,465.028931 
	C322.960175,464.564148 338.881226,464.357117 354.796997,463.957275 
	C356.235626,463.921143 357.659576,463.301056 359.090332,462.952148 
	C359.379700,465.350525 359.669098,467.748932 359.905670,470.573425 
z"/>
<path fill="#88A1DC" opacity="1.000000" stroke="none" 
	d="
M440.578705,390.213409 
	C458.156921,388.668518 475.428101,387.264465 492.716431,386.119781 
	C498.509094,385.736237 504.345520,386.013977 510.640503,385.979858 
	C512.407776,388.724335 513.696472,391.478455 514.671143,394.754578 
	C506.614624,395.862366 498.871887,396.444611 491.129791,397.034485 
	C473.807312,398.354370 456.485138,399.678009 439.162842,401.000122 
	C439.534668,397.485260 439.906525,393.970428 440.578705,390.213409 
z"/>
<path fill="#95A0D7" opacity="1.000000" stroke="none" 
	d="
M102.939377,420.491943 
	C104.167023,419.702820 105.417740,419.093231 106.689117,419.046539 
	C117.749863,418.640656 128.812332,418.198242 139.878204,418.038239 
	C151.559662,417.869293 163.245422,417.998199 175.384766,417.993896 
	C176.237350,421.029663 176.634491,424.068542 176.595047,427.549561 
	C154.836792,428.327972 133.514465,428.631226 112.194206,429.040924 
	C109.422668,429.094177 106.661659,429.695465 103.895775,430.042877 
	C103.587860,427.006073 103.279938,423.969299 102.939377,420.491943 
z"/>
<path fill="#CC9DC0" opacity="1.000000" stroke="none" 
	d="
M359.057465,462.561584 
	C357.659576,463.301056 356.235626,463.921143 354.796997,463.957275 
	C338.881226,464.357117 322.960175,464.564148 307.046600,465.028931 
	C291.407806,465.485657 275.777191,466.216125 260.140289,466.747375 
	C255.078430,466.919403 250.008057,466.841431 244.541641,466.936035 
	C244.107391,464.952545 244.073074,462.910767 244.543732,460.434631 
	C254.328369,459.667572 263.606934,459.299591 272.887970,459.011169 
	C284.771393,458.641846 296.655762,458.289917 308.541656,458.015228 
	C324.978973,457.635315 341.418121,457.334320 357.856506,456.999512 
	C358.245880,458.723358 358.635223,460.447205 359.057465,462.561584 
z"/>
<path fill="#AB9FCE" opacity="1.000000" stroke="none" 
	d="
M353.097443,434.950378 
	C353.697845,437.047028 354.298279,439.143677 354.456543,441.621155 
	C349.059692,442.334259 344.109070,442.849060 339.149475,442.959564 
	C329.738403,443.169250 320.315002,442.944916 310.910156,443.279205 
	C301.648041,443.608459 292.409729,444.703857 283.148132,444.925537 
	C270.822083,445.220612 258.483612,444.995483 246.150482,444.993805 
	C246.113602,442.953125 246.076736,440.912445 246.467529,438.488342 
	C249.301605,438.070862 251.708206,438.045990 254.114441,438.001221 
	C271.929413,437.669708 289.744873,437.362915 307.558990,436.990753 
	C321.309357,436.703461 335.058838,436.360504 348.806213,435.957611 
	C350.245209,435.915405 351.667450,435.299896 353.097443,434.950378 
z"/>
<path fill="#88A1DC" opacity="1.000000" stroke="none" 
	d="
M247.100189,400.418396 
	C254.368835,399.661438 261.577576,399.343506 268.785004,398.997223 
	C282.193024,398.353027 295.594849,397.513947 309.009949,397.110992 
	C316.113831,396.897583 323.245270,397.684570 330.354675,397.542084 
	C335.586395,397.437225 340.802612,396.557343 346.433990,396.009888 
	C346.903931,398.027832 346.965607,400.058746 346.697296,402.680908 
	C342.496155,403.628937 338.631805,404.158722 334.752625,404.312073 
	C318.945068,404.936981 303.136566,405.626923 287.321442,405.943420 
	C273.939636,406.211273 260.548187,405.997589 247.161011,405.997040 
	C247.120575,404.279572 247.080139,402.562073 247.100189,400.418396 
z"/>
<path fill="#9FA0D3" opacity="1.000000" stroke="none" 
	d="
M103.932693,430.441589 
	C106.661659,429.695465 109.422668,429.094177 112.194206,429.040924 
	C133.514465,428.631226 154.836792,428.327972 176.637421,427.983765 
	C177.395218,430.691772 177.674088,433.407745 177.483521,436.562500 
	C168.492722,437.333252 159.973663,437.752014 151.449493,437.978058 
	C136.353027,438.378387 121.253464,438.661682 106.155197,438.993958 
	C105.426666,436.276093 104.698135,433.558197 103.932693,430.441589 
z"/>
<path fill="#C39DC4" opacity="1.000000" stroke="none" 
	d="
M357.908386,456.611938 
	C341.418121,457.334320 324.978973,457.635315 308.541656,458.015228 
	C296.655762,458.289917 284.771393,458.641846 272.887970,459.011169 
	C263.606934,459.299591 254.328369,459.667572 244.592377,459.999329 
	C244.438553,458.257172 244.741058,456.515961 245.461151,454.380707 
	C246.839996,453.753906 247.798920,453.329285 248.762863,453.317566 
	C260.309753,453.176697 271.859161,453.192749 283.404205,452.972839 
	C293.657440,452.777496 303.904755,452.291748 314.156952,452.017639 
	C328.390839,451.637054 342.626801,451.334534 356.861877,450.998566 
	C357.227997,452.740479 357.594116,454.482422 357.908386,456.611938 
z"/>
<path fill="#90A1D9" opacity="1.000000" stroke="none" 
	d="
M348.902863,413.598175 
	C344.399445,414.331940 339.954865,414.704071 335.504822,414.992157 
	C326.099823,415.600983 316.698700,416.392059 307.283020,416.671173 
	C300.764557,416.864380 294.218353,416.040161 287.695374,416.178925 
	C276.442291,416.418243 265.197144,417.042145 253.949890,417.532379 
	C251.970230,417.618652 249.996475,417.840179 247.587372,417.998322 
	C247.116394,415.953369 247.078018,413.909363 247.553604,411.432159 
	C262.018341,410.664124 275.970367,410.372284 289.919159,409.968750 
	C294.210114,409.844635 298.493256,409.170105 302.778198,409.187714 
	C308.147766,409.209839 313.530243,410.079712 318.880798,409.879211 
	C328.634735,409.513641 338.369263,408.629517 348.111877,407.961731 
	C348.394318,409.707306 348.676788,411.452881 348.902863,413.598175 
z"/>
<path fill="#B49ECB" opacity="1.000000" stroke="none" 
	d="
M506.107178,433.032898 
	C504.467651,435.486755 502.828125,437.940613 500.570190,440.696350 
	C494.850128,441.323730 489.752655,441.756104 484.646057,441.955505 
	C466.147400,442.677856 447.645660,443.322021 429.145081,443.995667 
	C429.774170,441.584076 430.403290,439.172516 431.543823,436.380585 
	C442.969849,435.665527 453.887299,435.403259 464.797729,434.965424 
	C470.236725,434.747192 475.657318,434.083740 481.096039,433.842285 
	C489.428619,433.472412 497.769714,433.293091 506.107178,433.032898 
z"/>
<path fill="#E59BB7" opacity="1.000000" stroke="none" 
	d="
M186.880493,492.619141 
	C176.355453,493.001099 165.842117,492.677368 155.357773,493.090210 
	C144.710434,493.509430 134.091705,494.655304 123.203857,495.782227 
	C118.440056,494.240326 114.684616,491.607849 113.112213,486.353668 
	C136.742142,485.665283 160.341934,485.332458 184.397354,485.000305 
	C185.536957,487.412872 186.220932,489.824768 186.880493,492.619141 
z"/>
<path fill="#C39DC4" opacity="1.000000" stroke="none" 
	d="
M110.143738,464.996033 
	C109.777229,462.930634 109.410713,460.865234 109.551208,458.399475 
	C122.900017,457.666077 135.742310,457.350769 148.583466,456.994568 
	C159.674515,456.686951 170.764267,456.332764 181.854599,455.999115 
	C181.887833,458.041321 181.921066,460.083527 181.471588,462.562225 
	C177.883392,463.330994 174.782547,463.896240 171.671692,463.957886 
	C151.163574,464.364441 130.653305,464.662567 110.143738,464.996033 
z"/>
<path fill="#B49ECB" opacity="1.000000" stroke="none" 
	d="
M246.094299,445.408417 
	C258.483612,444.995483 270.822083,445.220612 283.148132,444.925537 
	C292.409729,444.703857 301.648041,443.608459 310.910156,443.279205 
	C320.315002,442.944916 329.738403,443.169250 339.149475,442.959564 
	C344.109070,442.849060 349.059692,442.334259 354.430115,441.999542 
	C355.215454,443.413391 355.584991,444.829681 355.451538,446.622498 
	C349.341003,447.332336 343.737518,447.785400 338.125122,447.974335 
	C325.872650,448.386902 313.616943,448.726013 301.360199,448.984009 
	C282.957184,449.371368 264.552124,449.663422 246.147949,449.995972 
	C246.111328,448.604980 246.074722,447.214020 246.094299,445.408417 
z"/>
<path fill="#9FA0D3" opacity="1.000000" stroke="none" 
	d="
M433.098083,422.418030 
	C448.464264,421.006165 463.768768,419.982849 479.078613,419.047424 
	C491.102325,418.312775 503.132690,417.686737 515.628296,417.025360 
	C514.949341,419.244568 513.802063,421.450836 511.905823,423.835083 
	C501.095490,424.355499 491.025696,424.540436 480.974609,425.076569 
	C465.028015,425.927155 449.093903,427.012360 433.154510,427.998352 
	C433.115906,426.280365 433.077301,424.562408 433.098083,422.418030 
z"/>
<path fill="#DC9BBA" opacity="1.000000" stroke="none" 
	d="
M479.053497,466.079651 
	C475.929169,469.299011 472.804810,472.518372 469.025970,475.734985 
	C467.747467,475.534180 467.115204,475.140625 466.500732,475.166718 
	C452.966675,475.741760 439.434570,476.363312 425.902100,476.975952 
	C426.283142,473.937958 426.664154,470.899994 427.549805,467.431091 
	C437.605682,466.666809 447.158966,466.382172 456.707306,465.979431 
	C461.466431,465.778687 466.213806,465.183136 470.971649,465.112274 
	C473.660217,465.072235 476.359192,465.734009 479.053497,466.079651 
z"/>
<path fill="#E59BB7" opacity="1.000000" stroke="none" 
	d="
M425.604004,477.242371 
	C439.434570,476.363312 452.966675,475.741760 466.500732,475.166718 
	C467.115204,475.140625 467.747467,475.534180 468.730469,475.890167 
	C468.441895,477.148651 468.030029,478.531921 467.106659,479.301697 
	C462.726624,482.953217 458.207092,486.437408 453.104187,489.720764 
	C450.850464,489.306915 449.224823,488.982117 447.610016,489.028961 
	C439.577209,489.261749 431.547241,489.592438 423.516296,489.888672 
	C424.112823,485.762054 424.709381,481.635437 425.604004,477.242371 
z"/>
<path fill="#BB9EC8" opacity="1.000000" stroke="none" 
	d="
M181.907135,455.599091 
	C170.764267,456.332764 159.674515,456.686951 148.583466,456.994568 
	C135.742310,457.350769 122.900017,457.666077 109.603378,457.997559 
	C108.779312,455.933929 108.410088,453.871857 108.497330,451.416138 
	C113.513634,451.015900 118.074440,451.067902 122.633141,450.992432 
	C142.124710,450.669891 161.615662,450.309723 181.106842,449.963287 
	C181.391113,451.708557 181.675400,453.453796 181.907135,455.599091 
z"/>
<path fill="#BB9EC8" opacity="1.000000" stroke="none" 
	d="
M246.073334,450.340332 
	C264.552124,449.663422 282.957184,449.371368 301.360199,448.984009 
	C313.616943,448.726013 325.872650,448.386902 338.125122,447.974335 
	C343.737518,447.785400 349.341003,447.332336 355.401489,446.997650 
	C356.137329,448.105103 356.420288,449.213928 356.782532,450.660645 
	C342.626801,451.334534 328.390839,451.637054 314.156952,452.017639 
	C303.904755,452.291748 293.657440,452.777496 283.404205,452.972839 
	C271.859161,453.192749 260.309753,453.176697 248.762863,453.317566 
	C247.798920,453.329285 246.839996,453.753906 245.511353,453.992981 
	C245.428894,452.894440 245.713806,451.789581 246.073334,450.340332 
z"/>
<path fill="#AB9FCE" opacity="1.000000" stroke="none" 
	d="
M178.854004,440.996582 
	C179.550934,442.753876 180.247849,444.511169 180.440979,446.632874 
	C157.451294,447.331696 134.965012,447.645569 112.480164,448.039764 
	C110.696709,448.071014 108.923012,448.658966 107.144775,448.988220 
	C107.085861,446.957733 107.026947,444.927277 107.408920,442.453430 
	C131.517883,441.672211 155.185944,441.334381 178.854004,440.996582 
z"/>
<path fill="#90A1D9" opacity="1.000000" stroke="none" 
	d="
M519.067871,405.610352 
	C501.473358,407.291656 483.842041,408.714386 466.195526,409.913940 
	C456.682617,410.560577 447.143707,410.825134 437.257233,411.105072 
	C437.268585,409.857788 437.639252,408.767487 438.468048,407.280731 
	C442.985535,406.256195 447.025787,405.347626 451.109009,405.069427 
	C456.484314,404.703156 461.909912,405.072540 467.284943,404.703888 
	C483.899963,403.564392 500.501221,402.224823 517.107849,400.962921 
	C517.746765,402.394897 518.385681,403.826874 519.067871,405.610352 
z"/>
<path fill="#8AA1DC" opacity="1.000000" stroke="none" 
	d="
M348.069885,407.579102 
	C338.369263,408.629517 328.634735,409.513641 318.880798,409.879211 
	C313.530243,410.079712 308.147766,409.209839 302.778198,409.187714 
	C298.493256,409.170105 294.210114,409.844635 289.919159,409.968750 
	C275.970367,410.372284 262.018341,410.664124 247.611801,410.997620 
	C247.117554,409.605743 247.079086,408.215271 247.100815,406.410889 
	C260.548187,405.997589 273.939636,406.211273 287.321442,405.943420 
	C303.136566,405.626923 318.945068,404.936981 334.752625,404.312073 
	C338.631805,404.158722 342.496155,403.628937 346.734070,403.114685 
	C347.409851,404.370270 347.718872,405.783356 348.069885,407.579102 
z"/>
<path fill="#D29CBE" opacity="1.000000" stroke="none" 
	d="
M479.346588,465.923706 
	C476.359192,465.734009 473.660217,465.072235 470.971649,465.112274 
	C466.213806,465.183136 461.466431,465.778687 456.707306,465.979431 
	C447.158966,466.382172 437.605682,466.666809 427.599548,467.000488 
	C427.109833,464.957306 427.075012,462.913849 427.543579,460.435211 
	C439.280548,459.352753 450.507568,458.519653 461.749969,458.119263 
	C470.173981,457.819183 478.617767,458.076141 487.052734,458.085083 
	C484.581726,460.645996 482.110718,463.206909 479.346588,465.923706 
z"/>
<path fill="#8AA1DC" opacity="1.000000" stroke="none" 
	d="
M517.064087,400.594971 
	C500.501221,402.224823 483.899963,403.564392 467.284943,404.703888 
	C461.909912,405.072540 456.484314,404.703156 451.109009,405.069427 
	C447.025787,405.347626 442.985535,406.256195 438.542389,406.937683 
	C438.367065,405.222443 438.575500,403.453796 438.973389,401.342651 
	C456.485138,399.678009 473.807312,398.354370 491.129791,397.034485 
	C498.871887,396.444611 506.614624,395.862366 514.728394,395.116852 
	C515.739990,396.713715 516.380188,398.470367 517.064087,400.594971 
z"/>
<path fill="#A69FD0" opacity="1.000000" stroke="none" 
	d="
M353.060852,434.581207 
	C351.667450,435.299896 350.245209,435.915405 348.806213,435.957611 
	C335.058838,436.360504 321.309357,436.703461 307.558990,436.990753 
	C289.744873,437.362915 271.929413,437.669708 254.114441,438.001221 
	C251.708206,438.045990 249.301605,438.070862 246.521301,438.053833 
	C246.111420,437.249298 246.075409,436.495911 246.096436,435.368622 
	C265.030243,434.661469 283.907867,434.369568 302.783478,433.980103 
	C315.062500,433.726807 327.340454,433.386353 339.614960,432.969269 
	C343.740326,432.829041 347.853546,432.332031 352.409180,431.996338 
	C352.905426,432.733765 352.964813,433.472931 353.060852,434.581207 
z"/>
<path fill="#C39DC4" opacity="1.000000" stroke="none" 
	d="
M428.900024,455.975220 
	C428.947449,454.265503 428.994904,452.555786 429.515808,450.422241 
	C432.604340,449.665771 435.211090,449.149780 437.835846,449.030579 
	C453.871094,448.302307 469.909576,447.642151 485.949188,447.015045 
	C488.991791,446.896057 492.044159,447.027252 495.092041,447.043030 
	C493.957031,448.936493 492.822052,450.829926 490.914673,452.867493 
	C469.728180,453.999481 449.314087,454.987335 428.900024,455.975220 
z"/>
<path fill="#F19AB2" opacity="1.000000" stroke="none" 
	d="
M423.358978,490.212646 
	C431.547241,489.592438 439.577209,489.261749 447.610016,489.028961 
	C449.224823,488.982117 450.850464,489.306915 452.760437,489.772888 
	C443.535278,497.818970 434.804871,506.705902 423.201660,511.900482 
	C423.201660,503.959808 423.201660,497.248230 423.358978,490.212646 
z"/>
<path fill="#CC9DC0" opacity="1.000000" stroke="none" 
	d="
M110.090240,465.410950 
	C130.653305,464.662567 151.163574,464.364441 171.671692,463.957886 
	C174.782547,463.896240 177.883392,463.330994 181.421204,462.997406 
	C181.888123,464.387085 181.922699,465.778076 181.491180,467.586060 
	C179.080002,468.333191 177.142731,468.889160 175.188629,468.956421 
	C163.292480,469.366028 151.394272,469.770386 139.493271,469.967010 
	C129.710480,470.128632 119.922882,469.999634 110.137413,469.999420 
	C110.103851,468.608215 110.070297,467.217010 110.090240,465.410950 
z"/>
<path fill="#A69FD0" opacity="1.000000" stroke="none" 
	d="
M432.990601,428.301819 
	C449.093903,427.012360 465.028015,425.927155 480.974609,425.076569 
	C491.025696,424.540436 501.095490,424.355499 511.628174,424.026062 
	C510.933899,425.931580 509.768311,427.824097 508.039429,429.590637 
	C496.890869,429.663757 486.292877,429.604065 475.723419,430.124268 
	C460.854279,430.856079 446.006348,432.018188 431.149323,432.996277 
	C431.708435,431.532623 432.267578,430.068970 432.990601,428.301819 
z"/>
<path fill="#BB9EC8" opacity="1.000000" stroke="none" 
	d="
M495.380432,446.894043 
	C492.044159,447.027252 488.991791,446.896057 485.949188,447.015045 
	C469.909576,447.642151 453.871094,448.302307 437.835846,449.030579 
	C435.211090,449.149780 432.604340,449.665771 429.567657,449.997742 
	C429.109131,448.280884 429.072235,446.564636 429.090210,444.422058 
	C447.645660,443.322021 466.147400,442.677856 484.646057,441.955505 
	C489.752655,441.756104 494.850128,441.323730 500.404846,440.996948 
	C499.128235,442.912109 497.398529,444.828583 495.380432,446.894043 
z"/>
<path fill="#D29CBE" opacity="1.000000" stroke="none" 
	d="
M110.217712,470.336884 
	C119.922882,469.999634 129.710480,470.128632 139.493271,469.967010 
	C151.394272,469.770386 163.292480,469.366028 175.188629,468.956421 
	C177.142731,468.889160 179.080002,468.333191 181.441254,468.000916 
	C182.244217,469.732666 182.630997,471.466553 183.057816,473.582703 
	C159.684097,474.313110 136.270309,474.661316 112.378738,475.018066 
	C111.366631,473.575867 110.832321,472.125092 110.217712,470.336884 
z"/>
<path fill="#CC9DC0" opacity="1.000000" stroke="none" 
	d="
M428.637054,456.161621 
	C449.314087,454.987335 469.728180,453.999481 490.619324,453.023926 
	C489.944092,454.614288 488.791809,456.192291 487.346130,457.927704 
	C478.617767,458.076141 470.173981,457.819183 461.749969,458.119263 
	C450.507568,458.519653 439.280548,459.352753 427.592010,459.999786 
	C427.549408,458.782410 427.961761,457.565216 428.637054,456.161621 
z"/>
<path fill="#AB9FCE" opacity="1.000000" stroke="none" 
	d="
M431.093750,433.369446 
	C446.006348,432.018188 460.854279,430.856079 475.723419,430.124268 
	C486.292877,429.604065 496.890869,429.663757 507.762878,429.777100 
	C507.570801,430.964294 507.091980,431.839020 506.360168,432.873352 
	C497.769714,433.293091 489.428619,433.472412 481.096039,433.842285 
	C475.657318,434.083740 470.236725,434.747192 464.797729,434.965424 
	C453.887299,435.403259 442.969849,435.665527 431.599457,435.999146 
	C431.108490,435.246246 431.073334,434.494415 431.093750,433.369446 
z"/>
<path fill="#B49ECB" opacity="1.000000" stroke="none" 
	d="
M107.179977,449.271912 
	C108.923012,448.658966 110.696709,448.071014 112.480164,448.039764 
	C134.965012,447.645569 157.451294,447.331696 180.392578,446.995300 
	C180.907486,447.736206 180.966995,448.479126 181.066681,449.592682 
	C161.615662,450.309723 142.124710,450.669891 122.633141,450.992432 
	C118.074440,451.067902 113.513634,451.015900 108.549133,451.009918 
	C107.834717,450.516754 107.524956,450.036194 107.179977,449.271912 
z"/>
<path fill="#A69FD0" opacity="1.000000" stroke="none" 
	d="
M178.777618,440.657745 
	C155.185944,441.334381 131.517883,441.672211 107.371674,442.019501 
	C106.610123,441.240631 106.326721,440.452271 106.099258,439.328918 
	C121.253464,438.661682 136.353027,438.378387 151.449493,437.978058 
	C159.973663,437.752014 168.492722,437.333252 177.429672,436.997864 
	C178.130585,438.102570 178.415909,439.210754 178.777618,440.657745 
z"/>
</svg>